<svg width="24" height="24" viewBox="0 0 24 24" fill="none" xmlns="http://www.w3.org/2000/svg">
<g id="icon">
<path id="Vector" d="M17.0007 1.20898L18.3195 3.68181L20.7923 5.00065L18.3195 6.31949L17.0007 8.79232L15.6818 6.31949L13.209 5.00065L15.6818 3.68181L17.0007 1.20898ZM10.6673 9.33398L15.6673 12.0006L10.6673 14.6673L8.00065 19.6673L5.33398 14.6673L0.333984 12.0006L5.33398 9.33398L8.00065 4.33398L10.6673 9.33398ZM11.4173 12.0006L9.18905 10.8122L8.00065 8.58398L6.81224 10.8122L4.58398 12.0006L6.81224 13.189L8.00065 15.4173L9.18905 13.189L11.4173 12.0006ZM19.6673 16.334L18.0007 13.209L16.334 16.334L13.209 18.0006L16.334 19.6673L18.0007 22.7923L19.6673 19.6673L22.7923 18.0006L19.6673 16.334Z" fill="#A31F34"/>
</g>
</svg>
